PathFileType  4	(X/Y/Z) C:\Users\antoi\Documents\MyRepositories\mobilecap\ResultsAnalysis
DataRate	CameraRate	NumFrames	NumMarkers	Units	OrigDataRate	OrigDataStartFrame	OrigNumFrames
100.0	100.0	6	51	mm	100.0	1081	1441
Frame#	Time	r_knee			r_shank_antsup			r_ankle			r_calc			r_5meta			r_toe			L_knee			L_shank_antsup			L_ankle			L_calc			L_5meta			L_toe			r_sh2			r_sh3			r_sh4			L_sh2			L_sh3			r_thigh1			r_thigh2			r_thigh3			r_thigh4			r_thigh5			L_thigh1			L_thigh2			L_thigh3			L_thigh4			r.ASIS			r.PSIS			L.ASIS			L.PSIS			C7			R_Shoulder			L_Shoulder			R_Sternum			L_Sternum			R_humerus			R_elbow_med			R_elbow_lat			R_forearm			R_wrist_radius			R_wrist_ulna			L_humerus			L_elbow_med			L_elbow_lat			L_forearm			L_wrist_radius			L_wrist_ulna			R_HJC			L_HJC			R_HJC_reg			L_HJC_reg			
		X1	Y1	Z1	X2	Y2	Z2	X3	Y3	Z3	X4	Y4	Z4	X5	Y5	Z5	X6	Y6	Z6	X7	Y7	Z7	X8	Y8	Z8	X9	Y9	Z9	X10	Y10	Z10	X11	Y11	Z11	X12	Y12	Z12	X13	Y13	Z13	X14	Y14	Z14	X15	Y15	Z15	X16	Y16	Z16	X17	Y17	Z17	X18	Y18	Z18	X19	Y19	Z19	X20	Y20	Z20	X21	Y21	Z21	X22	Y22	Z22	X23	Y23	Z23	X24	Y24	Z24	X25	Y25	Z25	X26	Y26	Z26	X27	Y27	Z27	X28	Y28	Z28	X29	Y29	Z29	X30	Y30	Z30	X31	Y31	Z31	X32	Y32	Z32	X33	Y33	Z33	X34	Y34	Z34	X35	Y35	Z35	X36	Y36	Z36	X37	Y37	Z37	X38	Y38	Z38	X39	Y39	Z39	X40	Y40	Z40	X41	Y41	Z41	X42	Y42	Z42	X43	Y43	Z43	X44	Y44	Z44	X45	Y45	Z45	X46	Y46	Z46	X47	Y47	Z47	X48	Y48	Z48	X49	Y49	Z49	X50	Y50	Z50	X51	Y51	Z51	

1081	10.80000000	-162.40772	509.71662	-414.43204	-112.69307	413.33180	-419.14426	-283.91158	119.17051	-424.54698	-368.67980	72.56646	-471.05592	-180.65733	49.92721	-367.99059	-118.12573	78.93322	-425.65345	-162.53252	510.11717	-840.83970	-150.82820	429.88782	-864.41504	-289.25115	121.65285	-833.97647	-376.29994	73.00617	-781.58676	-185.27210	50.91421	-869.57859	-125.09977	78.86115	-807.93649	-159.93769	313.20213	-391.97039	-167.31491	448.65309	-379.49095	-230.76818	351.00835	-370.23872	-236.13052	458.92649	-859.93478	-264.10509	339.30233	-860.93892	-423.53948	684.54760	-438.64909	-322.95852	655.87777	-437.60404	-314.76321	599.95314	-398.41621	-455.74951	577.35762	-426.44482	-342.94581	553.36876	-412.43126	-390.41456	685.65781	-821.40181	-256.56086	644.60157	-820.07248	-421.33812	585.70060	-854.79126	-291.33249	541.91181	-857.00896	-437.63263	726.50015	-509.70379	-614.91496	777.41477	-574.39494	-444.78132	720.25748	-756.13333	-622.07873	778.89348	-681.55221	-234.15417	1183.46364	-640.98039	-188.57003	1092.00377	-483.52946	-211.63371	1101.92828	-808.92794	-160.19473	1047.87403	-617.80900	-165.88737	1045.56591	-672.00014	-194.09762	956.40956	-406.38374	-258.43621	751.21877	-422.90533	-238.34181	784.19752	-338.46811	-79.12954	804.77251	-383.92224	-6.69737	844.68983	-427.14885	0.71075	803.61265	-405.88654	-247.29925	998.85891	-899.23131	-285.82525	754.06091	-867.98370	-263.42215	784.55815	-948.76350	-188.30957	800.96094	-939.47255	-37.73652	841.58877	-872.88602	-26.56171	802.94615	-882.90347	-542.08452	630.10082	-523.35755	-551.92127	633.19831	-730.06112	-511.05488	655.72947	-540.29383	-521.91129	657.96988	-702.67985	
1082	10.81000000	-164.89887	510.13008	-414.49295	-114.54467	413.96762	-419.35829	-283.98516	119.16502	-424.47750	-368.67350	72.57169	-471.12758	-180.69536	49.95566	-368.10713	-118.19684	79.05931	-425.74872	-165.43038	510.39973	-840.99930	-152.76431	430.21556	-864.41057	-289.33357	121.59751	-834.13181	-376.35412	72.96411	-781.56392	-185.31869	50.92739	-869.59691	-125.15823	78.91869	-807.95125	-161.17504	313.67294	-392.23169	-169.30786	449.17640	-379.76192	-232.29300	351.05461	-370.28587	-238.30324	458.91658	-860.31865	-265.59800	339.06746	-861.03358	-429.65947	679.43761	-438.05065	-328.75633	651.93454	-437.79030	-319.13509	597.03378	-398.57870	-459.67594	571.56807	-426.04361	-346.39708	549.70569	-412.39914	-397.19369	680.86622	-820.83208	-262.19652	643.03451	-820.17524	-425.86042	580.52796	-854.82867	-294.92012	539.67402	-857.32352	-441.67890	717.38005	-509.30034	-618.98167	768.56256	-574.19158	-448.95757	711.07165	-756.17550	-626.08677	770.03198	-681.15816	-234.45096	1170.90191	-641.33378	-189.34851	1079.24593	-484.02188	-211.35634	1089.19660	-810.05277	-161.65459	1034.58652	-618.09144	-167.33176	1032.23033	-672.21378	-193.98419	944.35429	-406.64543	-256.15612	738.58496	-422.37944	-235.74638	771.79420	-338.50130	-76.96548	793.50608	-384.34945	-4.97455	833.97576	-427.72536	2.78413	792.96302	-406.64679	-247.38045	985.96711	-899.38458	-284.38805	740.93695	-868.55690	-261.88823	771.60796	-948.87639	-186.89213	788.62790	-939.67390	-36.75700	830.30370	-872.75048	-25.41201	791.60973	-882.56851	-546.30152	621.13958	-523.08533	-556.23576	624.20766	-729.78468	-515.33002	646.55634	-539.98217	-526.13636	648.79106	-702.66992	
1083	10.82000000	-167.60609	510.58819	-414.68989	-116.63667	414.74825	-419.56768	-284.09644	119.18787	-424.41864	-368.65599	72.53793	-471.11359	-180.75124	50.00015	-368.29546	-118.23743	79.27506	-425.85008	-168.47618	510.78915	-840.87212	-154.83013	430.75570	-864.40814	-289.46827	121.55040	-834.30397	-376.39777	72.91586	-781.60949	-185.34915	50.91331	-869.59878	-125.24942	78.98659	-807.98153	-162.57837	314.42269	-392.56917	-171.64456	449.69274	-380.15833	-233.88477	351.33361	-370.58320	-240.64123	458.90745	-860.54014	-267.15703	338.82397	-861.14141	-435.38059	674.28292	-437.77180	-334.50619	648.29327	-438.14394	-323.61016	594.06886	-398.79253	-463.51819	565.77715	-425.99037	-349.93213	546.09174	-412.50314	-403.99130	676.37773	-820.18512	-267.99230	641.56390	-820.13930	-430.43562	575.52620	-854.70656	-298.69860	537.66761	-857.44464	-445.77089	708.69253	-508.77167	-623.12551	760.00036	-574.12536	-453.12940	702.05657	-755.90196	-630.06256	761.56421	-680.80348	-235.03904	1158.90996	-641.85496	-190.44784	1067.07410	-484.61741	-211.45714	1076.51374	-811.16326	-163.29138	1021.85705	-618.30623	-168.92581	1019.44322	-672.36176	-193.94389	932.93852	-406.95202	-253.93779	726.58324	-421.76010	-233.44886	760.22661	-338.17106	-74.96988	782.92707	-384.78726	-3.50496	823.96880	-428.36408	4.61084	783.04086	-407.33457	-247.70906	973.70798	-899.48663	-282.88815	728.68120	-868.51422	-260.51303	759.43209	-949.30285	-185.64457	776.91488	-939.79604	-35.88755	819.57103	-872.54629	-24.49222	780.70142	-882.01178	-550.65419	612.60194	-522.64580	-560.51360	615.45158	-729.35179	-519.62209	637.55301	-539.65233	-530.21313	639.94096	-702.52793	
1084	10.83000000	-170.54368	511.00528	-414.91707	-118.91484	415.73323	-419.74024	-284.23357	119.18322	-424.41510	-368.69816	72.47894	-471.12922	-180.74068	50.12113	-368.43219	-118.27395	79.57164	-425.93386	-171.79838	511.24510	-840.41599	-157.03150	431.49494	-864.66593	-289.68003	121.40620	-834.29785	-376.42572	72.87448	-781.66855	-185.36278	50.89437	-869.59155	-125.37144	79.04806	-807.96994	-164.12704	315.18032	-392.80046	-174.33936	450.18902	-380.56791	-235.87494	351.44820	-370.94816	-243.08136	458.94397	-860.68132	-268.79976	338.56967	-861.13813	-440.86371	669.35961	-437.51865	-340.24349	644.87103	-438.53868	-328.08825	591.02294	-399.08060	-467.57106	560.29350	-425.78427	-353.51608	542.62063	-412.49694	-410.62918	672.06457	-819.44835	-274.03286	639.92505	-819.65427	-435.03933	570.87035	-854.59361	-302.52993	535.74686	-857.37387	-449.80697	700.42379	-508.02709	-627.27557	751.76675	-574.06687	-457.32833	693.42179	-755.55086	-634.05607	753.44455	-680.52605	-235.87656	1147.47368	-642.33948	-191.77446	1055.45919	-485.18754	-212.38627	1064.64243	-811.61841	-165.12410	1009.70190	-618.50415	-170.71010	1007.28858	-672.54665	-193.90002	922.24570	-407.41621	-251.93334	715.19112	-421.02269	-231.44725	749.40416	-337.73162	-73.21607	773.16957	-385.08242	-2.31891	814.70278	-429.09855	6.14838	773.83871	-408.07130	-248.30632	962.18240	-899.54291	-281.61017	717.21691	-868.37821	-259.28103	748.12448	-950.10983	-184.65863	765.81600	-939.73307	-35.34108	809.30666	-872.05713	-23.77340	770.30604	-881.19424	-554.99558	604.45729	-522.12686	-564.72164	607.03159	-728.84288	-523.86172	628.84374	-539.13997	-534.25321	631.41495	-702.29553	
1085	10.84000000	-173.71897	511.39881	-415.31132	-121.31259	416.79319	-419.90968	-284.41518	119.12501	-424.46092	-368.76681	72.39233	-471.11008	-180.68484	50.29279	-368.52161	-118.32343	79.87941	-426.00950	-175.41164	511.72148	-839.94572	-159.47814	432.24083	-864.86630	-289.90188	121.09477	-833.89606	-376.41850	72.85071	-781.71395	-185.37306	50.91488	-869.57234	-125.49331	79.03552	-807.82530	-165.85583	315.85718	-393.01833	-177.21875	450.74661	-380.92883	-237.61730	351.85605	-371.40037	-245.63564	459.06067	-860.85100	-270.54753	338.42914	-860.94916	-446.43611	664.70071	-437.13336	-345.99319	641.65984	-438.89518	-332.58847	588.10950	-399.28364	-471.74166	555.27654	-425.23795	-357.19805	539.40442	-412.40332	-417.02337	667.92758	-818.75481	-279.98232	638.26634	-818.95308	-439.61380	566.64964	-854.51202	-306.37086	533.82124	-857.28636	-453.75732	692.38001	-507.33036	-631.39000	743.95935	-573.90509	-461.64758	685.26506	-755.20925	-638.13025	745.60589	-680.38046	-236.93724	1136.55716	-642.63195	-193.32830	1044.46473	-485.73635	-213.95972	1053.73880	-811.50036	-167.16126	998.17118	-618.71988	-172.73769	995.78012	-672.76519	-194.10116	912.19799	-407.88023	-250.24909	704.47158	-420.32478	-229.69600	739.20364	-337.40173	-71.79441	764.27222	-385.26168	-1.41150	806.21103	-429.84108	7.43949	765.45566	-408.74615	-249.16833	951.40188	-899.58007	-281.22542	705.86367	-869.44916	-258.25246	737.43587	-950.64742	-183.93945	755.31582	-939.55143	-35.21622	799.61318	-871.47818	-23.24218	760.62362	-880.45796	-559.31281	596.61002	-521.68683	-568.99533	599.01650	-728.40713	-528.13581	620.74670	-538.50001	-538.48001	623.27394	-701.90353	
1086	10.85000000	-177.11915	511.83554	-415.80259	-123.86144	417.82797	-420.15691	-284.65049	119.09405	-424.46826	-368.78333	72.30166	-471.04582	-180.66084	50.44813	-368.62006	-118.36333	80.21255	-426.10700	-179.05234	512.24486	-839.80512	-162.13109	432.87860	-864.64681	-290.08189	120.75925	-833.26575	-376.43055	72.81526	-781.74022	-185.40260	50.99678	-869.54473	-125.64174	78.98375	-807.64551	-167.71186	316.52690	-393.35972	-180.20230	451.44770	-381.32162	-239.06021	352.66259	-372.08381	-248.40272	459.13462	-860.94753	-272.39134	338.37590	-860.80440	-452.13942	660.18784	-436.82818	-351.41404	639.04773	-439.41245	-337.18158	585.51032	-399.43246	-475.79165	550.48823	-424.80450	-360.96586	536.47432	-412.32806	-423.22542	664.07905	-818.27550	-285.58629	637.01469	-818.35970	-444.10416	562.69592	-854.39772	-310.28219	532.00570	-857.25561	-457.71713	684.84756	-506.73293	-635.52834	736.60795	-573.80441	-466.06536	677.72676	-755.02589	-642.29611	738.05893	-680.34339	-238.26204	1126.18206	-642.83301	-195.08939	1034.21185	-486.22610	-215.89997	1043.16175	-811.29267	-169.37109	987.33813	-618.96279	-175.01144	984.90174	-672.89963	-194.71257	902.72044	-408.15054	-248.73340	694.43984	-419.79632	-228.14191	729.60455	-337.07254	-70.74405	756.15854	-385.49726	-0.84021	798.53988	-430.53946	8.48071	758.04464	-409.23156	-250.29939	941.30947	-899.71191	-281.47591	694.66706	-871.31420	-257.57340	727.18779	-950.67178	-183.47008	745.48963	-939.43796	-35.40944	790.60510	-870.95513	-22.95373	751.67086	-879.86869	-563.53294	589.20383	-521.36693	-573.24103	591.46286	-728.08756	-532.41900	613.36027	-537.82016	-542.81711	615.59044	-701.50828	
